<svg width="15" height="6" viewBox="0 0 15 6" fill="none" xmlns="http://www.w3.org/2000/svg">
<path fill-rule="evenodd" clip-rule="evenodd" d="M1.56241e-05 2.98631C-0.0012395 2.65373 0.0731417 2.32521 0.217548 2.02561C0.670708 1.11929 1.94862 0.638944 3.00901 0.421428C3.77377 0.258229 4.54909 0.1492 5.32919 0.0951527C6.7735 -0.0317176 8.22615 -0.0317176 9.67046 0.0951527C10.4505 0.149822 11.2258 0.258845 11.9906 0.421428C13.051 0.638944 14.3289 1.07398 14.7821 2.02561C15.0725 2.63633 15.0725 3.34535 14.7821 3.95607C14.3289 4.90771 13.051 5.34274 11.9906 5.5512C11.2268 5.72115 10.4512 5.83325 9.67046 5.88653C8.49491 5.98619 7.31387 6.00436 6.13582 5.94091C5.86392 5.94091 5.60109 5.94091 5.32919 5.88653C4.55139 5.83391 3.77876 5.7218 3.01808 5.5512C1.94862 5.34274 0.679771 4.90771 0.217548 3.95607C0.0738794 3.653 -0.000427913 3.32171 1.56241e-05 2.98631Z" fill="#9A9A9A"/>
</svg>
